<svg width="1080" height="1080" viewBox="0 0 1080 1080" fill="none" xmlns="http://www.w3.org/2000/svg">
<path d="M456.242 682.242C456.242 664.013 462.427 648.714 474.797 636.344C487.818 623.323 503.443 616.812 521.672 616.812H671.086L645.695 544.547C635.279 517.854 624.862 492.789 614.445 469.352C604.68 445.263 593.286 423.453 580.266 403.922C568.547 384.391 555.201 373.974 540.227 372.672C524.602 373.974 510.604 384.391 498.234 403.922C485.865 423.453 474.471 445.263 464.055 469.352C454.289 492.789 444.198 517.854 433.781 544.547L341.008 798.453C334.497 812.125 326.034 823.518 315.617 832.633C305.852 841.096 290.878 845.328 270.695 845.328C251.815 845.328 236.19 838.818 223.82 825.797C212.102 812.776 206.893 797.151 208.195 778.922C208.846 770.458 210.799 762.646 214.055 755.484L321.477 478.141C351.424 405.224 381.372 346.305 411.32 301.383C440.617 257.112 483.586 234.651 540.227 234C596.216 234.651 638.859 257.112 668.156 301.383C698.104 345.003 728.052 403.922 758 478.141L865.422 755.484C868.677 762.646 870.63 770.458 871.281 778.922C872.583 797.151 867.049 812.776 854.68 825.797C842.961 838.818 827.661 845.328 808.781 845.328C787.297 845.328 771.346 841.096 760.93 832.633C751.164 823.518 743.026 812.125 736.516 798.453L717.961 747.672H521.672C503.443 747.672 488.143 741.161 475.773 728.141C462.753 715.771 456.242 700.471 456.242 682.242Z" fill="black"/>
<path fill-rule="evenodd" clip-rule="evenodd" d="M515.5 497.5C515.5 472.371 535.871 452 561 452H705C730.129 452 750.5 472.371 750.5 497.5C750.5 522.629 730.129 543 705 543H561C535.871 543 515.5 522.629 515.5 497.5Z" fill="black"/>
</svg>
